<svg xmlns="http://www.w3.org/2000/svg" version="1.1" xmlns:xlink="http://www.w3.org/1999/xlink" xmlns:svgjs="http://svgjs.dev/svgjs" width="1000" height="999" viewBox="0 0 1000 999"><g transform="matrix(1,0,0,1,-0.215743440233382,-0.21552769679306039)"><svg viewBox="0 0 343 343" data-background-color="#0a1627" preserveAspectRatio="xMidYMid meet" height="999" width="1000" xmlns="http://www.w3.org/2000/svg" xmlns:xlink="http://www.w3.org/1999/xlink"><g id="tight-bounds" transform="matrix(1,0,0,1,0.0740000000000407,0.07400000000001228)"><svg viewBox="0 0 342.85155851775386 342.85155851775386" height="342.85155851775386" width="342.85155851775386"><g><svg></svg></g><g><svg viewBox="0 0 342.85155851775386 342.85155851775386" height="342.85155851775386" width="342.85155851775386"><g><path d="M0 171.426c0-94.676 76.75-171.426 171.426-171.426 94.676 0 171.426 76.75 171.426 171.426 0 94.676-76.75 171.426-171.426 171.426-94.676 0-171.426-76.75-171.426-171.426zM171.426 339.723c92.948 0 168.297-75.349 168.297-168.297 0-92.948-75.349-168.297-168.297-168.297-92.948 0-168.297 75.349-168.297 168.297 0 92.948 75.349 168.297 168.297 168.297z" data-fill-palette-color="tertiary" fill="#fe0039" stroke="transparent"></path><ellipse rx="164.56874808852186" ry="164.56874808852186" cx="171.42577925887693" cy="171.42577925887693" fill="#fe0039" stroke="transparent" stroke-width="0" fill-opacity="1" data-fill-palette-color="tertiary"></ellipse></g><g transform="matrix(1,0,0,1,64.84655864529837,114.02254433523575)"><svg viewBox="0 0 213.1584412271571 114.80646984728236" height="114.80646984728236" width="213.1584412271571"><g><svg viewBox="0 0 213.1584412271571 114.80646984728236" height="114.80646984728236" width="213.1584412271571"><g><svg viewBox="0 0 213.1584412271571 114.80646984728236" height="114.80646984728236" width="213.1584412271571"><g transform="matrix(1,0,0,1,0,80.1120506658304)"><svg viewBox="0 0 213.1584412271571 34.69441918145196" height="34.69441918145196" width="213.1584412271571"><g id="textblocktransform"><svg viewBox="0 0 213.1584412271571 34.69441918145196" height="34.69441918145196" width="213.1584412271571" id="textblock"><g><svg viewBox="0 0 213.1584412271571 34.69441918145196" height="34.69441918145196" width="213.1584412271571"><g transform="matrix(1,0,0,1,0,0)"><svg width="213.1584412271571" viewBox="0.65 -35.101076377752 217.48999999999998 35.401076377752" height="34.69441918145196" data-palette-color="#0a1627"><path d="M18 0.3L13.65 0.3 4.75-26.65Q4.25-28.1 3.98-29.3 3.7-30.5 3.7-31.3L3.7-31.3Q2.75-31.25 2.02-31.23 1.3-31.2 0.65-31.15L0.65-31.15 0.65-35 15.4-35 15.4-31.7Q13.55-31.75 12.68-31 11.8-30.25 12.45-27.95L12.45-27.95Q13.2-25.1 13.95-22.25 14.7-19.4 15.45-16.55L15.45-16.55Q15.9-14.85 16.28-13.35 16.65-11.85 17.1-9.45L17.1-9.45 17.15-9.45Q17.35-10.15 17.75-11.6 18.15-13.05 18.63-14.73 19.1-16.4 19.48-17.78 19.85-19.15 20-19.7L20-19.7Q20.8-22.25 21.58-24.8 22.35-27.35 23.13-29.9 23.9-32.45 24.65-35L24.65-35 29.15-35Q29.85-32.7 30.58-30.4 31.3-28.1 32-25.8 32.7-23.5 33.43-21.2 34.15-18.9 34.85-16.6L34.85-16.6Q35.4-14.9 35.83-13.08 36.25-11.25 36.65-9.4L36.65-9.4 36.7-9.4Q37.15-11 37.63-12.73 38.1-14.45 38.6-16.3L38.6-16.3Q38.95-17.6 39.3-18.9 39.65-20.2 40-21.53 40.35-22.85 40.7-24.15 41.05-25.45 41.4-26.75L41.4-26.75Q41.7-27.95 42.2-29.23 42.7-30.5 43.45-31.3L43.45-31.3Q42.65-31.25 41.4-31.23 40.15-31.2 39.6-31.15L39.6-31.15 39.6-35 50.85-35 50.85-31.7Q49.75-31.65 48.78-31.13 47.8-30.6 47-29.45 46.2-28.3 45.55-26.35L45.55-26.35Q43.55-19.7 41.5-13.05 39.45-6.4 37.4 0.3L37.4 0.3 32.95 0.3 27.05-17.6Q26.4-19.55 25.98-21.43 25.55-23.3 25.15-25L25.15-25Q24.9-23.3 24.55-21.73 24.2-20.15 23.7-18.45L23.7-18.45 18 0.3ZM73.6-12.05L70.3-12.05Q70.3-14.15 69.65-15.08 69-16 67.87-16.25 66.75-16.5 65.4-16.45L65.4-16.45 64.1-16.4 64.1-8.2Q64.1-6.85 64.05-5.65 64-4.45 63.9-3.8L63.9-3.8 70.6-3.8Q72.1-3.8 73.5-4.48 74.9-5.15 75.8-6.73 76.7-8.3 76.7-11L76.7-11 79.95-11 79.7 0 53.3 0 53.3-3.3Q54.45-3.35 55.22-3.6 56-3.85 56.42-4.75 56.85-5.65 56.85-7.65L56.85-7.65 56.85-26.8Q56.85-28.15 56.92-29.4 57-30.65 57.05-31.3L57.05-31.3Q56.25-31.25 55.05-31.23 53.85-31.2 53.3-31.15L53.3-31.15 53.3-35 78.3-35 78.6-25.3 75.3-25.3Q75.3-28.05 74.35-29.45 73.4-30.85 72-31.33 70.6-31.8 69.25-31.75L69.25-31.75 67.45-31.7Q66.4-31.7 65.65-31.43 64.9-31.15 64.5-30.23 64.1-29.3 64.1-27.35L64.1-27.35 64.1-19.85 69.95-19.85 69.75-24.2 73.6-24.2 73.6-12.05ZM101.5 0L84.5 0 84.5-3.3Q85.65-3.35 86.42-3.6 87.2-3.85 87.62-4.75 88.05-5.65 88.05-7.65L88.05-7.65 88.05-26.8Q88.05-28.15 88.12-29.4 88.2-30.65 88.25-31.3L88.25-31.3Q87.45-31.25 86.25-31.23 85.05-31.2 84.5-31.15L84.5-31.15 84.5-35Q87.95-35.05 91.42-35.05 94.9-35.05 98.34-35.1L98.34-35.1Q104.34-35.15 107.87-32.88 111.4-30.6 111.15-26L111.15-26Q111.05-24.55 110.25-23.18 109.45-21.8 107.87-20.7 106.3-19.6 103.95-18.95L103.95-18.95 103.95-18.9Q108.95-18.1 111.3-15.58 113.65-13.05 113.65-9.95L113.65-9.95Q113.65-6.7 112.07-4.48 110.5-2.25 107.75-1.13 105 0 101.5 0L101.5 0ZM95.09-3.55L95.09-3.55Q96-3.55 96.8-3.55 97.59-3.55 98.4-3.58 99.2-3.6 99.95-3.6L99.95-3.6Q103-3.75 104.4-5.55 105.8-7.35 105.8-10.1L105.8-10.1Q105.8-12.4 104.84-13.73 103.9-15.05 102.42-15.6 100.95-16.15 99.34-16.15L99.34-16.15Q98.09-16.15 97.2-16.15 96.3-16.15 95.3-16.1L95.3-16.1 95.3-7.95Q95.3-6.6 95.25-5.4 95.2-4.2 95.09-3.55ZM95.3-27.4L95.3-19.65 97.9-19.7Q100-19.75 101.22-20.65 102.45-21.55 102.97-23.08 103.5-24.6 103.5-26.4L103.5-26.4Q103.5-28.4 102.7-29.53 101.9-30.65 100.7-31.15 99.5-31.65 98.2-31.6L98.2-31.6Q97.4-31.6 96.75-31.35 96.09-31.1 95.7-30.23 95.3-29.35 95.3-27.4L95.3-27.4ZM131.34-35L131.34-31.7Q130.24-31.65 129.44-31.4 128.64-31.15 128.22-30.28 127.79-29.4 127.79-27.35L127.79-27.35 127.79-8.2Q127.79-6.85 127.74-5.6 127.69-4.35 127.59-3.7L127.59-3.7Q128.39-3.8 129.62-3.83 130.84-3.85 131.34-3.85L131.34-3.85 131.34 0 116.99 0 116.99-3.3Q118.14-3.35 118.92-3.6 119.69-3.85 120.12-4.75 120.54-5.65 120.54-7.65L120.54-7.65 120.54-26.8Q120.54-28.15 120.62-29.4 120.69-30.65 120.74-31.3L120.74-31.3Q119.94-31.25 118.74-31.23 117.54-31.2 116.99-31.15L116.99-31.15 116.99-35 131.34-35ZM161.59 0L135.84 0 135.84-3.75Q139.59-9.45 143.32-15.15 147.04-20.85 150.79-26.55L150.79-26.55Q151.74-28 152.54-29.18 153.34-30.35 154.29-31.45L154.29-31.45 145.74-31.75Q142.99-31.85 141.19-30.13 139.39-28.4 139.39-24.35L139.39-24.35 136.09-24.35 136.39-35 161.84-35 161.84-31.25 147.44-9.45Q146.39-7.9 145.34-6.38 144.29-4.85 143.14-3.5L143.14-3.5 152.29-3.3Q155.09-3.25 156.84-4.93 158.59-6.6 158.59-10.7L158.59-10.7 161.89-10.7 161.59 0ZM180.89-35L180.89-31.7Q179.79-31.65 178.99-31.4 178.19-31.15 177.76-30.28 177.34-29.4 177.34-27.35L177.34-27.35 177.34-8.2Q177.34-6.85 177.29-5.6 177.24-4.35 177.14-3.7L177.14-3.7Q177.94-3.8 179.16-3.83 180.39-3.85 180.89-3.85L180.89-3.85 180.89 0 166.54 0 166.54-3.3Q167.69-3.35 168.46-3.6 169.24-3.85 169.66-4.75 170.09-5.65 170.09-7.65L170.09-7.65 170.09-26.8Q170.09-28.15 170.16-29.4 170.24-30.65 170.29-31.3L170.29-31.3Q169.49-31.25 168.29-31.23 167.09-31.2 166.54-31.15L166.54-31.15 166.54-35 180.89-35ZM196.14 0L185.14 0 185.14-3.3Q186.59-3.65 188.04-4.93 189.49-6.2 191.34-8.65L191.34-8.65 197.14-16.4Q195.14-18.95 193.14-21.5 191.14-24.05 189.09-26.6L189.09-26.6Q188.29-27.65 187.64-28.93 186.99-30.2 186.59-31.3L186.59-31.3Q185.79-31.25 185.21-31.23 184.64-31.2 184.09-31.15L184.09-31.15 184.09-35 199.29-35 199.29-31.7 198.79-31.7Q197.24-31.7 196.64-31.25 196.04-30.8 196.21-30.03 196.39-29.25 197.14-28.3L197.14-28.3Q198.29-26.9 199.39-25.5 200.49-24.1 201.59-22.65L201.59-22.65 205.39-27.9Q206.44-29.35 207.06-30.03 207.69-30.7 208.34-31.3L208.34-31.3Q207.54-31.25 206.34-31.23 205.14-31.2 204.59-31.15L204.59-31.15 204.59-35 215.94-35 215.94-31.7Q214.79-31.55 213.66-30.9 212.54-30.25 211.39-29.08 210.24-27.9 208.89-26.05L208.89-26.05 204.09-19.5Q205.69-17.5 207.24-15.5 208.79-13.5 210.36-11.5 211.94-9.5 213.49-7.5L213.49-7.5Q214.34-6.45 215.04-5.5 215.74-4.55 216.09-3.7L216.09-3.7Q216.94-3.8 217.29-3.83 217.64-3.85 218.14-3.85L218.14-3.85 218.14 0 203.19 0 203.19-3.3Q205.04-3.3 205.59-3.75 206.14-4.2 205.86-4.98 205.59-5.75 204.84-6.7L204.84-6.7Q203.59-8.3 202.31-9.93 201.04-11.55 199.74-13.15L199.74-13.15Q198.64-11.65 197.54-10.13 196.44-8.6 195.34-7.1L195.34-7.1Q194.29-5.7 193.74-5 193.19-4.3 192.59-3.7L192.59-3.7Q193.44-3.75 194.54-3.8 195.64-3.85 196.14-3.85L196.14-3.85 196.14 0Z" opacity="1" transform="matrix(1,0,0,1,0,0)" fill="#0a1627" class="undefined-text-0" data-fill-palette-color="quaternary" id="text-0"></path></svg></g></svg></g></svg></g></svg></g><g transform="matrix(1,0,0,1,48.06418639803933,0)"><svg viewBox="0 0 117.03006843107845 71.92153096314993" height="71.92153096314993" width="117.03006843107845"><g><svg xmlns="http://www.w3.org/2000/svg" data-name="Layer 1" viewBox="2.430551295781235 20.791724898981606 95.13905147020833 58.4682751010184" x="0" y="0" height="71.92153096314993" width="117.03006843107845" class="icon-icon-0" data-fill-palette-color="quaternary" id="icon-0"><path d="M62.78 23l32 55.42 1.3-2.26h-64l1.3 2.26L65.37 23a1.5 1.5 0 0 0-2.59-1.51L30.79 77a1.51 1.51 0 0 0 1.3 2.26h64A1.51 1.51 0 0 0 97.37 77l-32-55.42A1.5 1.5 0 0 0 62.78 23Z" fill="#0a1627" data-fill-palette-color="quaternary"></path><path d="M34.63 23l32 55.42 1.3-2.26h-64l1.3 2.26L37.22 23a1.5 1.5 0 0 0-2.59-1.51L2.63 77a1.51 1.51 0 0 0 1.3 2.26h64A1.51 1.51 0 0 0 69.21 77l-32-55.42A1.5 1.5 0 0 0 34.63 23Z" fill="#0a1627" data-fill-palette-color="quaternary"></path></svg></g></svg></g><g></g></svg></g></svg></g></svg></g></svg></g><defs></defs></svg><rect width="342.85155851775386" height="342.85155851775386" fill="none" stroke="none" visibility="hidden"></rect></g></svg></g></svg>